<!-- * * * * * * * * * * * * * * * * * * * * * * * * * * * *

	Сделано сделано специально для проекта Plugify and untrustedmodders
	Сайт проекта: https://github.com/untrustedmodders
	Автор: Fr4nch
	
	=============== Контакты автора ===============
	Telegram: https://t.me/fr0nch
	Discord: fr4nch_ (ID: 244718631148060675)
	
	ВСЕ ПРАВА ПРЕДНАЛЕЖАТ UNTRUSTEDMODDERS и FR4NCH

 * * * * * * * * * * * * * * * * * * * * * * * * * * * * -->
<svg xmlns="http://www.w3.org/2000/svg" version="1.1" xmlns:xlink="http://www.w3.org/1999/xlink" xmlns:svgjs="http://svgjs.dev/svgjs" width="1000" height="1000"><g clip-path="url(#SvgjsClipPath1056)"><rect width="1000" height="1000" fill="#1f2123"></rect><g transform="matrix(1.3671875,0,0,1.3671875,150,150)"><svg xmlns="http://www.w3.org/2000/svg" version="1.1" xmlns:xlink="http://www.w3.org/1999/xlink" xmlns:svgjs="http://svgjs.dev/svgjs" width="512px" height="512px"><svg version="1.1" id="logo" xmlns="http://www.w3.org/2000/svg" xmlns:xlink="http://www.w3.org/1999/xlink" x="0px" y="0px" width="512px" height="512px" viewBox="0 0 512 512" style="enable-background:new 0 0 512 512;" xml:space="preserve">
<g id="plug">
	<!-- ВСЕ ПРАВА ПРЕДНАЛЕЖАТ UNTRUSTEDMODDERS и FR4NCH -->
	<path style="fill:#FFFFFF;" d="M403.2735596,336.3186646l-13.3878174-13.3878174l113.7961731-113.7961578
		c11.0907898-11.0907745,11.0907898-29.0725861,0-40.1633759l-13.3877869-13.3877716
		c-11.0908508-11.0908356-29.0725708-11.0907745-40.1633606,0L336.3345947,269.3796997l-93.7145081-93.7144775L356.4162903,61.86903
		c11.0907593-11.0907478,11.0907593-29.0725975,0-40.1633453L343.0284729,8.3178968
		c-11.0908203-11.0908489-29.0725708-11.0907612-40.1633301,0L189.0689392,122.1140747l-13.3877716-13.3877716
		c-11.0908661-11.0908661-29.0726013-11.0907745-40.1633759,0l-26.7755661,26.7755737
		c-11.0908356,11.0908356-11.0908356,29.0725098,0,40.1633453l13.3878021,13.3878021l-50.8921356,71.7332611l176.7925415,56.1393738
		l-103.1647339,25.4070435l157.1349335,62.3977051l20.946167-14.8605957l13.3877869,13.3877869
		c11.0907898,11.0907898,29.0725098,11.0908508,40.1633606,0l26.7756042-26.7756042
		C414.3642578,365.3912964,414.3642578,347.4094238,403.2735596,336.3186646z"></path>
	<!-- ВСЕ ПРАВА ПРЕДНАЛЕЖАТ UNTRUSTEDMODDERS и FR4NCH -->
	<path style="fill:#FFFFFF;" d="M17.8569355,336.0276184L5.2376451,353.8147583
		c-8.0133095,11.2946777-6.7115374,26.7222595,3.0808897,36.514679l23.206461,23.2064514l6.6938725-6.6938782
		c11.0907745-11.0907593,29.0725365-11.0908203,40.163372,0l26.7755737,26.7756042
		c11.0907745,11.0907288,11.0907745,29.0725708,0,40.1633606l-6.6939011,6.6938477l23.2068481,23.2068481
		c9.79245,9.792511,25.2199554,11.0941467,36.51474,3.0809326l126.6795807-89.8750916L17.8569355,336.0276184z"></path>
	<!-- ВСЕ ПРАВА ПРЕДНАЛЕЖАТ UNTRUSTEDMODDERS и FR4NCH -->
	<polygon style="fill:#FFFFFF;" points="169.7842865,311.0624695 64.0577774,270.9067078 20.8041229,331.8735046 	"></polygon>
</g>
<!-- ВСЕ ПРАВА ПРЕДНАЛЕЖАТ UNTRUSTEDMODDERS и FR4NCH -->
</svg></svg></g></g><defs><clipPath id="SvgjsClipPath1056"><rect width="1000" height="1000" x="0" y="0" rx="350" ry="350"></rect></clipPath></defs></svg>