<?xml version="1.0" encoding="utf-8"?>
<!-- * * * * * * * * * * * * * * * * * * * * * * * * * * * *

	Сделано специально для проекта Plugify and untrustedmodders
	Сайт проекта: https://github.com/untrustedmodders
	Автор: Fr4nch
	
	=============== Контакты автора ===============
	Telegram: https://t.me/fr0nch
	Discord: fr4nch_ (ID: 244718631148060675)
	
	ВСЕ ПРАВА ПРЕДНАЛЕЖАТ UNTRUSTEDMODDERS и FR4NCH

 * * * * * * * * * * * * * * * * * * * * * * * * * * * * -->
<svg version="1.1" id="untrustedmodders" xmlns="http://www.w3.org/2000/svg" xmlns:xlink="http://www.w3.org/1999/xlink" x="0px"
	 y="0px" width="512px" height="512px" viewBox="0 0 512 512" style="enable-background:new 0 0 512 512;" xml:space="preserve">
<!-- ВСЕ ПРАВА ПРЕДНАЛЕЖАТ UNTRUSTEDMODDERS и FR4NCH -->
<polygon id="_x5F_field_7_" style="fill:#1F2123;" points="54.3025017,139.5516357 54.3025017,372.4551392 256,488.9035034 
	457.6975098,372.4551392 457.6975098,360.9032288 457.6975098,139.5516357 256,23.0965004 "/>
<!-- ВСЕ ПРАВА ПРЕДНАЛЕЖАТ UNTRUSTEDMODDERS и FR4NCH -->
<polygon id="_x5F_outline_1_" style="fill:#FFFFFF;" points="74.2974854,360.9060059 74.2974854,151.0939941 
	155.999939,103.9230347 155.999939,57.7350464 34.2974854,128 34.2974854,384 155.999939,454.2649536 155.999939,408.0769043 "/>
<!-- ВСЕ ПРАВА ПРЕДНАЛЕЖАТ UNTRUSTEDMODDERS и FR4NCH -->
<polygon id="_x5F_outline" style="fill:#FFFFFF;" points="477.7025146,128 355.999939,57.7349854 355.999939,103.9229736 
	437.7025146,151.0939941 437.7025146,360.9060059 356.000061,408.0769043 356.000061,431.1693726 356.000061,454.2649536 
	477.7025146,384 477.7025146,360.9060059 "/>
<g id="_x5F_UNM">
	<g id="_x5F_M_1_">
		<!-- ВСЕ ПРАВА ПРЕДНАЛЕЖАТ UNTRUSTEDMODDERS и FR4NCH -->
		<polygon style="fill:#FFFFFF;" points="175.9999084,488.9060059 215.9999084,465.8120117 215.9999084,350.302002 
			175.9999084,335.302002 		"/>
		<!-- ВСЕ ПРАВА ПРЕДНАЛЕЖАТ UNTRUSTEDMODDERS и FR4NCH -->
		<polygon style="fill:#FFFFFF;" points="335.9999084,488.9060059 335.9999084,335.302002 295.9999084,350.302002 
			295.9999084,465.8120117 		"/>
		<!-- ВСЕ ПРАВА ПРЕДНАЛЕЖАТ UNTRUSTEDMODDERS и FR4NCH -->
		<polygon style="fill:#FFFFFF;" points="335.9999695,375.302002 295.9999084,390.302002 277.2496033,397.802002 
			255.9999695,405.302002 235.999939,397.802002 215.9999695,390.302002 175.9999695,375.302002 175.9999695,335.302002 
			215.9999695,350.302002 235.999939,357.802002 235.999939,377.802002 255.9999695,385.302002 275.999939,377.802002 
			275.999939,357.802002 295.9999084,350.302002 335.9999695,335.302002 		"/>
	</g>
	<g id="_x5F_N_1_">
		<!-- ВСЕ ПРАВА ПРЕДНАЛЕЖАТ UNTRUSTEDMODDERS и FR4NCH -->
		<polygon style="fill:#FFFFFF;" points="335.9999695,306.3954468 175.9999695,226.3954315 175.9999695,186.3954315 
			335.9999695,266.3954468 		"/>
		<!-- ВСЕ ПРАВА ПРЕДНАЛЕЖАТ UNTRUSTEDMODDERS и FR4NCH -->
		<polygon style="fill:#FFFFFF;" points="215.9999084,330.302002 215.9999084,186.697998 175.9999084,176.697998 
			175.9999084,315.3009949 		"/>
		<!-- ВСЕ ПРАВА ПРЕДНАЛЕЖАТ UNTRUSTEDMODDERS и FR4NCH -->
		<polygon style="fill:#FFFFFF;" points="295.9999084,330.302002 335.9999084,315.3009949 335.9999084,176.697998 
			295.9999084,186.697998 		"/>
	</g>
	<g id="_x5F_U_1_">
		<!-- ВСЕ ПРАВА ПРЕДНАЛЕЖАТ UNTRUSTEDMODDERS и FR4NCH -->
		<polygon style="fill:#FFFFFF;" points="335.9999695,156.697998 255.9999695,176.697998 175.9999695,156.697998 
			175.9999695,116.697998 255.9999695,146.697998 335.9999695,116.697998 		"/>
		<!-- ВСЕ ПРАВА ПРЕДНАЛЕЖАТ UNTRUSTEDMODDERS и FR4NCH -->
		<polygon style="fill:#FFFFFF;" points="215.9999084,23.0939999 175.9999084,46.1879997 175.9999084,156.6970062 
			215.9999084,166.6970062 		"/>
		<!-- ВСЕ ПРАВА ПРЕДНАЛЕЖАТ UNTRUSTEDMODDERS и FR4NCH -->
		<polygon style="fill:#FFFFFF;" points="335.9999084,46.1879997 295.9999084,23.0939999 295.9999084,166.6970062 
			335.9999084,156.6970062 		"/>
	</g>
</g>
</svg>
