<?xml version="1.0" encoding="utf-8"?>
<!-- * * * * * * * * * * * * * * * * * * * * * * * * * * * *

	Сделано специально для проекта Plugify and untrustedmodders
	Сайт проекта: https://github.com/untrustedmodders
	Автор: Fr4nch
	
	=============== Контакты автора ===============
	Telegram: https://t.me/fr0nch
	Discord: fr4nch_ (ID: 244718631148060675)
	
	ВСЕ ПРАВА ПРЕДНАЛЕЖАТ UNTRUSTEDMODDERS и FR4NCH

 * * * * * * * * * * * * * * * * * * * * * * * * * * * * -->
<svg version="1.1" id="untrustedmodders" xmlns="http://www.w3.org/2000/svg" xmlns:xlink="http://www.w3.org/1999/xlink" x="0px"
	 y="0px" width="512px" height="512px" viewBox="0 0 512 512" style="enable-background:new 0 0 512 512;" xml:space="preserve">
<!-- ВСЕ ПРАВА ПРЕДНАЛЕЖАТ UNTRUSTEDMODDERS и FR4NCH -->
<polygon id="_x5F_outline_1_" style="fill:#FFFFFF;" points="74.3,360.9 74.3,151.1 156,103.9 156,57.7 34.3,128 34.3,384 
	156,454.3 156,408.1 "/>
<!-- ВСЕ ПРАВА ПРЕДНАЛЕЖАТ UNTRUSTEDMODDERS и FR4NCH -->
<polygon id="_x5F_outline" style="fill:#FFFFFF;" points="477.7,128 356,57.7 356,103.9 437.7,151.1 437.7,360.9 356,408.1 
	356,454.3 477.7,384 "/>
<g id="_x5F_M_1_">
	<!-- ВСЕ ПРАВА ПРЕДНАЛЕЖАТ UNTRUSTEDMODDERS и FR4NCH -->
	<polygon style="fill:#FFFFFF;" points="176,488.9 216,465.8 216,350.3 176,335.3 	"/>
	<!-- ВСЕ ПРАВА ПРЕДНАЛЕЖАТ UNTRUSTEDMODDERS и FR4NCH -->
	<polygon style="fill:#FFFFFF;" points="336,488.9 336,335.3 296,350.3 296,465.8 	"/>
	<!-- ВСЕ ПРАВА ПРЕДНАЛЕЖАТ UNTRUSTEDMODDERS и FR4NCH -->
	<polygon style="fill:#FFFFFF;" points="336,375.3 296,390.3 277.2,397.8 256,405.3 236,397.8 216,390.3 176,375.3 176,335.3 
		216,350.3 236,357.8 236,377.8 256,385.3 276,377.8 276,357.8 296,350.3 336,335.3 	"/>
</g>
<g id="_x5F_N_1_">
	<!-- ВСЕ ПРАВА ПРЕДНАЛЕЖАТ UNTRUSTEDMODDERS и FR4NCH -->
	<polygon style="fill:#FFFFFF;" points="336,306.4 176,226.4 176,186.4 336,266.4 	"/>
	<!-- ВСЕ ПРАВА ПРЕДНАЛЕЖАТ UNTRUSTEDMODDERS и FR4NCH -->
	<polygon style="fill:#FFFFFF;" points="216,330.3 216,186.7 176,176.7 176,315.3 	"/>
	<!-- ВСЕ ПРАВА ПРЕДНАЛЕЖАТ UNTRUSTEDMODDERS и FR4NCH -->
	<polygon style="fill:#FFFFFF;" points="296,330.3 336,315.3 336,176.7 296,186.7 	"/>
</g>
<g id="_x5F_U_1_">
	<!-- ВСЕ ПРАВА ПРЕДНАЛЕЖАТ UNTRUSTEDMODDERS и FR4NCH -->
	<polygon style="fill:#FFFFFF;" points="336,156.7 256,176.7 176,156.7 176,116.7 256,146.7 336,116.7 	"/>
	<!-- ВСЕ ПРАВА ПРЕДНАЛЕЖАТ UNTRUSTEDMODDERS и FR4NCH -->
	<polygon style="fill:#FFFFFF;" points="216,23.1 176,46.2 176,156.7 216,166.7 	"/>
	<!-- ВСЕ ПРАВА ПРЕДНАЛЕЖАТ UNTRUSTEDMODDERS и FR4NCH -->
	<polygon style="fill:#FFFFFF;" points="336,46.2 296,23.1 296,166.7 336,156.7 	"/>
</g>
</svg>
